<svg width="20" height="20" viewBox="0 0 20 20" fill="none" xmlns="http://www.w3.org/2000/svg">
  <path d="M10 12.5C11.3807 12.5 12.5 11.3807 12.5 10C12.5 8.61929 11.3807 7.5 10 7.5C8.61929 7.5 7.5 8.61929 7.5 10C7.5 11.3807 8.61929 12.5 10 12.5Z" stroke="currentColor" stroke-width="1.5" stroke-linecap="round" stroke-linejoin="round"/>
  <path d="M16.25 10C16.25 9.16667 17.0833 8.51667 17.0833 7.68333C17.0833 6.85 16.25 6.2 16.25 5.36667M16.25 10C16.25 9.16667 15.4167 8.51667 15.4167 7.68333C15.4167 6.85 16.25 6.2 16.25 5.36667M3.75 10C3.75 9.16667 2.91667 8.51667 2.91667 7.68333C2.91667 6.85 3.75 6.2 3.75 5.36667M3.75 10C3.75 9.16667 4.58333 8.51667 4.58333 7.68333C4.58333 6.85 3.75 6.2 3.75 5.36667M10 3.75C9.16667 3.75 8.51667 2.91667 7.68333 2.91667C6.85 2.91667 6.2 3.75 5.36667 3.75M10 16.25C9.16667 16.25 8.51667 17.0833 7.68333 17.0833C6.85 17.0833 6.2 16.25 5.36667 16.25" stroke="currentColor" stroke-width="1.5" stroke-linecap="round" stroke-linejoin="round"/>
</svg>

