<svg width="20" height="20" viewBox="0 0 20 20" fill="none" xmlns="http://www.w3.org/2000/svg">
  <path d="M13.3333 5.83333C13.3333 7.21405 12.214 8.33333 10.8333 8.33333C9.45262 8.33333 8.33333 7.21405 8.33333 5.83333C8.33333 4.45262 9.45262 3.33333 10.8333 3.33333C12.214 3.33333 13.3333 4.45262 13.3333 5.83333Z" stroke="currentColor" stroke-width="1.5" stroke-linecap="round" stroke-linejoin="round"/>
  <path d="M5 16.25C5 13.75 7.5 11.6667 10.8333 11.6667C14.1667 11.6667 16.6667 13.75 16.6667 16.25" stroke="currentColor" stroke-width="1.5" stroke-linecap="round" stroke-linejoin="round"/>
  <path d="M3.33333 7.5C3.33333 8.69411 4.13881 9.58333 5.25 9.58333C6.36119 9.58333 7.16667 8.69411 7.16667 7.5C7.16667 6.30589 6.36119 5.41667 5.25 5.41667C4.13881 5.41667 3.33333 6.30589 3.33333 7.5Z" stroke="currentColor" stroke-width="1.5" stroke-linecap="round" stroke-linejoin="round"/>
  <path d="M1.66667 14.5833C1.66667 13.3333 3.33333 12.0833 5.25 12.0833C7.16667 12.0833 8.83333 13.3333 8.83333 14.5833" stroke="currentColor" stroke-width="1.5" stroke-linecap="round" stroke-linejoin="round"/>
</svg>

